<svg version="1.1" xmlns="http://www.w3.org/2000/svg" xmlns:xlink="http://www.w3.org/1999/xlink" width="2499" height="2500" viewBox="0,0,255.8941,255.99828"><g fill="#fcc419" fill-rule="nonzero" stroke="none" stroke-width="1" stroke-linecap="butt" stroke-linejoin="miter" stroke-miterlimit="10" stroke-dasharray="" stroke-dashoffset="0" font-family="none" font-weight="none" font-size="none" text-anchor="none" style="mix-blend-mode: normal"><g transform="translate(-0.01036,-0.01753) scale(0.33329,0.33333)"><path d="M698.3,40c-10.8,25.8 -24.5,50.3 -41,72.8c-72.2,-72.2 -170.2,-112.8 -272.3,-112.8c-211.2,0 -385,174 -385,385.5c0,105.5 43.2,206.5 119.6,279.3l14.2,12.6c69.4,58.5 157.3,90.7 248,90.7c200.8,0 369.6,-157.4 383.9,-358c10.5,-98.2 -18.3,-222.4 -67.4,-370.1zM174.3,667c-6.2,7.7 -15.7,12.2 -25.6,12.2c-18.1,0 -32.9,-14.9 -32.9,-33c0,-18.1 14.9,-33 32.9,-33c7.5,0 14.9,2.6 20.7,7.4c14.1,11.4 16.3,32.3 4.9,46.4zM696.7,551.6c-95,126.7 -297.9,84 -428,90.1c0,0 -23.1,1.4 -46.3,5.2c0,0 8.7,-3.7 20,-8c91.3,-31.8 134.5,-38 190,-66.5c104.5,-53.2 207.8,-169.6 229.3,-290.7c-39.8,116.5 -160.4,216.6 -270.3,257.3c-75.3,27.8 -211.3,54.8 -211.3,54.8l-5.5,-2.9c-92.6,-45.1 -95.4,-245.8 72.9,-310.6c73.7,-28.4 144.2,-12.8 223.8,-31.8c85,-20.2 183.3,-84 223.3,-167.2c44.8,133.1 98.7,341.5 2.1,470.3z"></path></g></g></svg>